<svg aria-hidden="true" viewBox="0 0 71 34" xmlns="http://www.w3.org/2000/svg" class="css-ob18a8"><path d="M2 13.2647H3.68242V21.7574H2V13.2647ZM11.6591 19.3309L7.56189 13.2445H5.42422V21.7371H7.10664V15.4485L11.2632 21.6967L11.283 21.7371H13.3415V13.2445H11.6591V19.3309ZM14.252 14.7408H16.9043V21.7371H18.5867V14.7408H21.239V13.2647H14.2718V14.7408H14.252ZM23.8121 18.1379H27.7708V16.6618H23.8121V14.761H27.9885V13.2849H22.1297V21.7776H28.2062V20.261H23.8121V18.1379ZM33.9858 18.0368L36.2818 21.7371H34.2629L32.2638 18.1985H31.2544V21.7371H29.5719V13.2445H32.6399C33.5108 13.2243 34.2629 13.386 34.8963 13.75C35.5495 14.114 35.886 14.761 35.9256 15.7114C35.9256 16.3382 35.7474 16.864 35.3911 17.2684C35.0744 17.6728 34.5994 17.9357 33.9858 18.0368ZM33.6691 14.8419C33.3129 14.7004 32.9368 14.6397 32.5211 14.6599H31.2544V16.7831H32.3826C32.8378 16.8033 33.2535 16.7426 33.6295 16.6213C33.9858 16.5 34.1837 16.1967 34.2035 15.6912C34.164 15.2665 34.0056 14.9835 33.6691 14.8419ZM43.3282 19.4926C43.0511 19.8364 42.7542 20.079 42.4177 20.2408C42.101 20.4026 41.7843 20.4835 41.4281 20.4835C40.5572 20.4632 39.8446 20.1801 39.33 19.614C38.8154 19.068 38.5382 18.3199 38.5382 17.4504C38.558 16.6213 38.8154 15.9338 39.33 15.3879C39.8446 14.8419 40.5572 14.5588 41.4281 14.5386C41.725 14.5386 42.0021 14.579 42.299 14.7004C42.5959 14.8217 42.8928 15.0239 43.1897 15.3474L43.2292 15.3879L44.5356 14.4577L44.4762 14.3971C44.0408 13.9118 43.5657 13.568 43.0511 13.3658C42.5365 13.1636 41.9823 13.0625 41.3885 13.0625C40.0227 13.0827 38.9143 13.4871 38.0632 14.296C37.2121 15.0846 36.7767 16.1967 36.7569 17.5717C36.7767 18.9063 37.2121 19.9779 38.0632 20.7665C38.8945 21.5551 40.0227 21.9596 41.3885 21.9798H41.4083C42.0416 21.9798 42.6552 21.8585 43.2094 21.6158C43.7637 21.3732 44.2585 20.989 44.6544 20.4632L44.6939 20.4026L43.3084 19.4522L43.3282 19.4926ZM45.5846 21.7371H47.2671V13.2445H45.5846V21.7371ZM48.138 14.7408H50.7902V21.7371H52.4727V14.7408H55.1052V13.2647H48.138V14.7408ZM57.6783 18.1379H61.6369V16.6618H57.6783V14.761H61.8546V13.2849H55.9959V21.7776H62.0724V20.261H57.6783V18.1379ZM61.3004 11H59.4399L58.1335 12.8401H59.4399L61.3004 11ZM68.327 17.5717C67.9114 17.2279 67.4363 16.9853 66.9019 16.8235C66.3675 16.6618 65.9123 16.5 65.4966 16.3382C65.1205 16.1765 64.9226 15.9136 64.9028 15.5496C64.9226 15.1857 65.0414 14.943 65.3185 14.7812C65.5758 14.6195 65.8925 14.5386 66.229 14.5386H66.2487C66.5456 14.5386 66.8227 14.5993 67.0801 14.7004C67.3374 14.8015 67.5353 14.9632 67.7134 15.1857L67.753 15.2463L68.9802 13.9926L68.9208 13.9522C68.5843 13.6489 68.1885 13.4062 67.753 13.2849C67.3374 13.1434 66.8821 13.0827 66.4269 13.0827C66.4071 13.0827 66.4071 13.0827 66.3873 13.0827C65.556 13.0827 64.8038 13.2849 64.1705 13.7096C63.5173 14.1342 63.1808 14.8015 63.1412 15.671C63.161 16.4191 63.3787 16.9651 63.8142 17.3088C64.2298 17.6526 64.7049 17.8952 65.2393 18.0368C65.7737 18.1783 66.2289 18.3603 66.6446 18.5423C67.0207 18.7243 67.2186 19.0073 67.2384 19.4118C67.2186 19.7757 67.0801 20.0386 66.7832 20.2206C66.4863 20.4026 66.1696 20.5037 65.7935 20.5037C65.457 20.5037 65.1403 20.4228 64.8632 20.2812C64.5663 20.1397 64.3288 19.9375 64.1507 19.6544L64.1111 19.5938L62.8443 20.7868L62.8839 20.8474C63.2402 21.2518 63.6954 21.5551 64.1903 21.7371C64.6851 21.9191 65.1997 22 65.7341 22C65.7539 22 65.7539 22 65.7737 22C66.6446 22 67.4165 21.7776 68.0301 21.3327C68.6437 20.8879 68.9802 20.1801 69 19.2702C68.9802 18.4816 68.7427 17.9154 68.327 17.5717Z"></path></svg>