<svg aria-hidden="true" viewBox="0 0 28 34" xmlns="http://www.w3.org/2000/svg" class="css-ob18a8"><path d="M4.90699 13.4492H2V12H9.5019V13.4492H6.59491V21H4.90699V13.4492Z"></path><path d="M10.6569 12H16.9397V13.4492H12.3448V15.661H16.6986V17.1102H12.3448V19.5508H17.1809V21H10.6569V12Z"></path><path d="M18.8464 12H22.1419C22.5974 12 23.035 12.0424 23.4547 12.1271C23.8834 12.2034 24.263 12.339 24.5934 12.5339C24.9238 12.7288 25.1873 12.9915 25.3838 13.322C25.5802 13.6525 25.6785 14.072 25.6785 14.5805C25.6785 15.2331 25.4865 15.7797 25.1025 16.2203C24.7274 16.661 24.187 16.928 23.4815 17.0212L26 21H23.9638L21.7668 17.1864H20.5343V21H18.8464V12ZM21.8472 15.8136C22.0883 15.8136 22.3294 15.8051 22.5706 15.7881C22.8117 15.7627 23.0305 15.7119 23.227 15.6356C23.4324 15.5508 23.5976 15.428 23.7226 15.2669C23.8477 15.0975 23.9102 14.8644 23.9102 14.5678C23.9102 14.3051 23.8521 14.0932 23.736 13.9322C23.6199 13.7712 23.4681 13.6525 23.2806 13.5763C23.093 13.4915 22.8831 13.4364 22.6509 13.411C22.4277 13.3856 22.2089 13.3729 21.9945 13.3729H20.5343V15.8136H21.8472Z"></path></svg>