<svg aria-hidden="true" viewBox="0 0 42 34" xmlns="http://www.w3.org/2000/svg" class="css-ob18a8"><path d="M2.47644 9.34276V9.79108H3.67574V12.852H4.18504V9.79108H5.38435V9.34276H2.47644ZM7.76654 10.8887V11.337H8.58798V12.311C8.47298 12.3728 8.34155 12.4192 8.17726 12.4501C8.01297 12.481 7.84868 12.4965 7.66796 12.4965C7.45439 12.4965 7.27367 12.4656 7.09295 12.3883C6.91223 12.311 6.76437 12.2182 6.63294 12.0945C6.50151 11.9709 6.40294 11.8163 6.32079 11.6462C6.25508 11.4762 6.20579 11.2906 6.20579 11.0897C6.20579 10.9042 6.23865 10.7186 6.30437 10.5486C6.37008 10.3785 6.46865 10.2239 6.58366 10.1003C6.69866 9.97659 6.84652 9.86838 7.02724 9.80654C7.19153 9.72924 7.38867 9.69832 7.60225 9.69832C7.79939 9.69832 7.98011 9.72924 8.1444 9.77562C8.30869 9.83746 8.47298 9.93021 8.63727 10.0693L8.9987 9.71378C8.85084 9.57465 8.67012 9.46643 8.45655 9.37368C8.24297 9.29638 7.96368 9.25 7.61868 9.25C7.33939 9.25 7.07652 9.29638 6.83009 9.38913C6.58366 9.48189 6.38651 9.60557 6.22222 9.77562C6.05793 9.94567 5.9265 10.1312 5.82793 10.3631C5.72935 10.595 5.68007 10.8269 5.68007 11.0897C5.68007 11.337 5.72936 11.5689 5.8115 11.8008C5.89364 12.0172 6.02507 12.2182 6.20579 12.3883C6.37008 12.5583 6.58366 12.6974 6.83009 12.7902C7.07652 12.883 7.35581 12.9448 7.66796 12.9448C7.78297 12.9448 7.89797 12.9448 8.0294 12.9293C8.16083 12.9139 8.27583 12.8984 8.40726 12.8675C8.53869 12.8366 8.6537 12.8057 8.7687 12.7593C8.8837 12.7129 8.98227 12.6665 9.08085 12.6201V10.8887H7.76654ZM10.9373 12.8366H11.4137L12.8759 9.3273H12.3173L11.2002 12.1873H11.1837L10.083 9.34276H9.49157L10.9373 12.8366ZM7.20795 17.5981C7.20795 16.6705 8.01297 15.8975 9.01513 15.8975C10.0009 15.8975 10.8223 16.6551 10.8223 17.5981V22.6224H12.9088V17.5981C12.9088 15.5884 11.1673 13.9497 9.03156 13.9497C6.89581 13.9497 5.12149 15.5884 5.12149 17.5981V22.6224H7.20795V17.5981ZM2.60787 14.3361C2.27929 15.6347 2.09857 16.9952 2.09857 18.3865C2.09857 18.4174 2.09857 21.1228 2.09857 21.1228C2.16429 21.0764 2.21357 21.0455 2.27929 20.9991C2.54215 20.86 2.83787 20.7673 3.16645 20.7673C3.54431 20.7673 3.90575 20.8909 4.20147 21.0764V14.3361H2.60787Z"></path><path d="M38.8335 15.4333C38.1928 15.4333 37.6671 14.9386 37.6671 14.3357C37.6671 13.7327 38.1928 13.238 38.8335 13.238C39.4743 13.238 40 13.7327 40 14.3357C40 14.954 39.4743 15.4333 38.8335 15.4333ZM3.16645 21.5397C2.52572 21.5397 2 22.0344 2 22.6374C2 23.2403 2.52572 23.735 3.16645 23.735C3.80718 23.735 4.3329 23.2403 4.3329 22.6374C4.3329 22.019 3.80718 21.5397 3.16645 21.5397ZM21.0082 25.25C17.0489 25.25 13.8288 22.22 13.8288 18.4942C13.8288 14.7685 17.0489 11.7385 21.0082 11.7385C24.9676 11.7385 28.1876 14.7685 28.1876 18.4942C28.1876 22.22 24.9676 25.25 21.0082 25.25ZM21.0082 13.9492C18.3467 13.9492 16.1946 15.9898 16.1946 18.4788C16.1946 20.9677 18.3632 23.0084 21.0082 23.0084C23.6697 23.0084 25.8383 20.9677 25.8383 18.4788C25.8383 15.9898 23.6533 13.9492 21.0082 13.9492ZM34.792 19.36C34.792 20.2875 33.987 21.0605 32.9849 21.0605C31.9991 21.0605 31.1777 20.303 31.1777 19.36V14.3357H29.1077V19.36C29.1077 21.3697 30.8491 23.0084 32.9849 23.0084C35.1206 23.0084 36.8785 21.3697 36.8785 19.36V14.3357H34.792V19.36ZM39.3921 22.6219C39.7207 21.3233 39.9014 19.9629 39.9014 18.5715C39.9014 18.5406 39.9014 15.8352 39.9014 15.8352C39.8357 15.8816 39.7864 15.9125 39.7207 15.9589C39.4578 16.098 39.1621 16.1908 38.8335 16.1908C38.4557 16.1908 38.0942 16.0671 37.7985 15.8816V22.6374H39.3921V22.6219Z"></path></svg>