<svg aria-hidden="true" viewBox="0 0 27 27" xmlns="http://www.w3.org/2000/svg" class="css-ob18a8">
<path d="M12 27C17.5228 27 22 22.5228 22 17C22 11.4772 17.5228 7 12 7C6.47715 7 2 11.4772 2 17C2 22.5228 6.47715 27 12 27ZM2.89081 17.1644V17.1531C2.89081 16.042 3.77787 15.1319 4.99857 15.1319C6.21928 15.1319 7.09551 16.0307 7.09551 17.1423V17.1531C7.09551 18.2642 6.20798 19.1743 4.98728 19.1743C3.76657 19.1743 2.89081 18.275 2.89081 17.1644ZM6.18493 17.1644V17.1531C6.18493 16.483 5.68751 15.9249 4.98681 15.9249C4.2861 15.9249 3.79998 16.4722 3.79998 17.1423V17.1531C3.79998 17.8232 4.2974 18.3818 4.9981 18.3818C5.69881 18.3818 6.18493 17.834 6.18493 17.1644ZM7.44566 15.5971C7.44566 15.4817 7.49152 15.3709 7.57315 15.2893C7.65479 15.2077 7.76551 15.1618 7.88095 15.1618C7.9964 15.1618 8.10712 15.2077 8.18875 15.2893C8.27039 15.3709 8.31625 15.4817 8.31625 15.5971V17.4117C8.31625 18.0484 8.63813 18.3778 9.16942 18.3778C9.70072 18.3778 10.0226 18.0592 10.0226 17.4395V15.5957C10.0226 15.4802 10.0685 15.3695 10.1501 15.2879C10.2317 15.2063 10.3424 15.1604 10.4579 15.1604C10.5733 15.1604 10.6841 15.2063 10.7657 15.2879C10.8473 15.3695 10.8932 15.4802 10.8932 15.5957V17.4046C10.8932 18.5886 10.2207 19.1693 9.15813 19.1693C8.09554 19.1693 7.44566 18.583 7.44566 17.4324V15.5971ZM11.4588 15.5952C11.4625 15.4823 11.51 15.3753 11.5912 15.2967C11.6724 15.2182 11.7809 15.1742 11.8939 15.1742C12.0068 15.1742 12.1154 15.2182 12.1966 15.2967C12.2778 15.3753 12.3252 15.4823 12.3289 15.5952V18.711C12.3252 18.8239 12.2778 18.9309 12.1966 19.0095C12.1154 19.088 12.0068 19.132 11.8939 19.132C11.7809 19.132 11.6724 19.088 11.5912 19.0095C11.51 18.9309 11.4625 18.8239 11.4588 18.711V15.5952ZM12.7807 17.1531C12.7807 16.042 13.6565 15.1319 14.8546 15.1319C15.4537 15.1319 15.8494 15.266 16.2057 15.5117C16.252 15.5448 16.2912 15.587 16.321 15.6355C16.3508 15.6841 16.3706 15.7381 16.3791 15.7944C16.3877 15.8507 16.3849 15.9082 16.371 15.9634C16.357 16.0186 16.3321 16.0705 16.2978 16.116C16.2634 16.1614 16.2203 16.1996 16.171 16.2281C16.1217 16.2566 16.0672 16.275 16.0107 16.2822C15.9542 16.2893 15.8968 16.2851 15.842 16.2697C15.7871 16.2543 15.7359 16.2281 15.6913 16.1926C15.4407 16.0099 15.1364 15.9157 14.8264 15.9249C14.1934 15.9249 13.6904 16.4778 13.6904 17.1423V17.1531C13.6904 17.8679 14.1878 18.3926 14.8885 18.3926C15.2052 18.3926 15.4876 18.3145 15.7083 18.1573V17.5992H15.1205C15.0714 17.6001 15.0225 17.5913 14.9768 17.5733C14.9311 17.5552 14.8895 17.5283 14.8542 17.494C14.819 17.4597 14.7909 17.4188 14.7716 17.3736C14.7523 17.3285 14.7421 17.2799 14.7417 17.2307C14.742 17.1813 14.752 17.1324 14.7712 17.0868C14.7904 17.0413 14.8184 17 14.8536 16.9652C14.8888 16.9305 14.9305 16.903 14.9763 16.8844C15.0221 16.8657 15.0711 16.8563 15.1205 16.8566H16.1149C16.1718 16.8558 16.2284 16.8663 16.2812 16.8876C16.334 16.9089 16.3821 16.9404 16.4226 16.9805C16.4631 17.0205 16.4953 17.0682 16.5172 17.1208C16.5391 17.1734 16.5503 17.2298 16.5502 17.2867V18.2359C16.5502 18.4872 16.456 18.6594 16.2452 18.7832C15.8283 19.0383 15.349 19.1734 14.8603 19.1738C13.6283 19.1738 12.7807 18.3197 12.7807 17.1644V17.1531ZM16.8499 17.1644V17.1531C16.8499 16.042 17.7369 15.1319 18.9576 15.1319C20.1783 15.1319 21.0546 16.0307 21.0546 17.1423V17.1531C21.0546 18.2642 20.167 19.1743 18.9463 19.1743C17.7256 19.1743 16.8499 18.275 16.8499 17.1644ZM20.144 17.1644V17.1531C20.144 16.483 19.6466 15.9249 18.9459 15.9249C18.2451 15.9249 17.759 16.4722 17.759 17.1423V17.1531C17.759 17.8232 18.2564 18.3818 18.9571 18.3818C19.6579 18.3818 20.144 17.834 20.144 17.1644ZM12.4189 14.1272C12.4189 14.4175 12.1835 14.6529 11.8932 14.6529C11.6029 14.6529 11.3676 14.4175 11.3676 14.1272C11.3676 13.8369 11.6029 13.6016 11.8932 13.6016C12.1835 13.6016 12.4189 13.8369 12.4189 14.1272Z"></path>
</svg>