<svg aria-hidden="true" viewBox="0 0 111 34" xmlns="http://www.w3.org/2000/svg" class="css-ob18a8"><path d="M12 27C17.5228 27 22 22.5228 22 17C22 11.4772 17.5228 7 12 7C6.47715 7 2 11.4772 2 17C2 22.5228 6.47715 27 12 27ZM2.89081 17.1644V17.1531C2.89081 16.042 3.77787 15.1319 4.99857 15.1319C6.21928 15.1319 7.09551 16.0307 7.09551 17.1423V17.1531C7.09551 18.2642 6.20798 19.1743 4.98728 19.1743C3.76657 19.1743 2.89081 18.275 2.89081 17.1644ZM6.18493 17.1644V17.1531C6.18493 16.483 5.68751 15.9249 4.98681 15.9249C4.2861 15.9249 3.79998 16.4722 3.79998 17.1423V17.1531C3.79998 17.8232 4.2974 18.3818 4.9981 18.3818C5.69881 18.3818 6.18493 17.834 6.18493 17.1644ZM7.44566 15.5971C7.44566 15.4817 7.49152 15.3709 7.57315 15.2893C7.65479 15.2077 7.76551 15.1618 7.88095 15.1618C7.9964 15.1618 8.10712 15.2077 8.18875 15.2893C8.27039 15.3709 8.31625 15.4817 8.31625 15.5971V17.4117C8.31625 18.0484 8.63813 18.3778 9.16942 18.3778C9.70072 18.3778 10.0226 18.0592 10.0226 17.4395V15.5957C10.0226 15.4802 10.0685 15.3695 10.1501 15.2879C10.2317 15.2063 10.3424 15.1604 10.4579 15.1604C10.5733 15.1604 10.6841 15.2063 10.7657 15.2879C10.8473 15.3695 10.8932 15.4802 10.8932 15.5957V17.4046C10.8932 18.5886 10.2207 19.1693 9.15813 19.1693C8.09554 19.1693 7.44566 18.583 7.44566 17.4324V15.5971ZM11.4588 15.5952C11.4625 15.4823 11.51 15.3753 11.5912 15.2967C11.6724 15.2182 11.7809 15.1742 11.8939 15.1742C12.0068 15.1742 12.1154 15.2182 12.1966 15.2967C12.2778 15.3753 12.3252 15.4823 12.3289 15.5952V18.711C12.3252 18.8239 12.2778 18.9309 12.1966 19.0095C12.1154 19.088 12.0068 19.132 11.8939 19.132C11.7809 19.132 11.6724 19.088 11.5912 19.0095C11.51 18.9309 11.4625 18.8239 11.4588 18.711V15.5952ZM12.7807 17.1531C12.7807 16.042 13.6565 15.1319 14.8546 15.1319C15.4537 15.1319 15.8494 15.266 16.2057 15.5117C16.252 15.5448 16.2912 15.587 16.321 15.6355C16.3508 15.6841 16.3706 15.7381 16.3791 15.7944C16.3877 15.8507 16.3849 15.9082 16.371 15.9634C16.357 16.0186 16.3321 16.0705 16.2978 16.116C16.2634 16.1614 16.2203 16.1996 16.171 16.2281C16.1217 16.2566 16.0672 16.275 16.0107 16.2822C15.9542 16.2893 15.8968 16.2851 15.842 16.2697C15.7871 16.2543 15.7359 16.2281 15.6913 16.1926C15.4407 16.0099 15.1364 15.9157 14.8264 15.9249C14.1934 15.9249 13.6904 16.4778 13.6904 17.1423V17.1531C13.6904 17.8679 14.1878 18.3926 14.8885 18.3926C15.2052 18.3926 15.4876 18.3145 15.7083 18.1573V17.5992H15.1205C15.0714 17.6001 15.0225 17.5913 14.9768 17.5733C14.9311 17.5552 14.8895 17.5283 14.8542 17.494C14.819 17.4597 14.7909 17.4188 14.7716 17.3736C14.7523 17.3285 14.7421 17.2799 14.7417 17.2307C14.742 17.1813 14.752 17.1324 14.7712 17.0868C14.7904 17.0413 14.8184 17 14.8536 16.9652C14.8888 16.9305 14.9305 16.903 14.9763 16.8844C15.0221 16.8657 15.0711 16.8563 15.1205 16.8566H16.1149C16.1718 16.8558 16.2284 16.8663 16.2812 16.8876C16.334 16.9089 16.3821 16.9404 16.4226 16.9805C16.4631 17.0205 16.4953 17.0682 16.5172 17.1208C16.5391 17.1734 16.5503 17.2298 16.5502 17.2867V18.2359C16.5502 18.4872 16.456 18.6594 16.2452 18.7832C15.8283 19.0383 15.349 19.1734 14.8603 19.1738C13.6283 19.1738 12.7807 18.3197 12.7807 17.1644V17.1531ZM16.8499 17.1644V17.1531C16.8499 16.042 17.7369 15.1319 18.9576 15.1319C20.1783 15.1319 21.0546 16.0307 21.0546 17.1423V17.1531C21.0546 18.2642 20.167 19.1743 18.9463 19.1743C17.7256 19.1743 16.8499 18.275 16.8499 17.1644ZM20.144 17.1644V17.1531C20.144 16.483 19.6466 15.9249 18.9459 15.9249C18.2451 15.9249 17.759 16.4722 17.759 17.1423V17.1531C17.759 17.8232 18.2564 18.3818 18.9571 18.3818C19.6579 18.3818 20.144 17.834 20.144 17.1644ZM12.4189 14.1272C12.4189 14.4175 12.1835 14.6529 11.8932 14.6529C11.6029 14.6529 11.3676 14.4175 11.3676 14.1272C11.3676 13.8369 11.6029 13.6016 11.8932 13.6016C12.1835 13.6016 12.4189 13.8369 12.4189 14.1272Z"></path><path d="M34.328 16.248V20.436C34.12 20.564 33.884 20.676 33.62 20.772C33.356 20.868 33.08 20.948 32.792 21.012C32.512 21.084 32.224 21.136 31.928 21.168C31.64 21.2 31.368 21.216 31.112 21.216C30.392 21.216 29.748 21.096 29.18 20.856C28.62 20.616 28.144 20.292 27.752 19.884C27.368 19.476 27.072 19.004 26.864 18.468C26.664 17.924 26.564 17.352 26.564 16.752C26.564 16.12 26.672 15.532 26.888 14.988C27.112 14.444 27.416 13.972 27.8 13.572C28.192 13.172 28.66 12.86 29.204 12.636C29.748 12.404 30.344 12.288 30.992 12.288C31.776 12.288 32.416 12.388 32.912 12.588C33.408 12.78 33.824 13.048 34.16 13.392L33.344 14.268C32.992 13.932 32.62 13.7 32.228 13.572C31.836 13.436 31.424 13.368 30.992 13.368C30.504 13.368 30.064 13.46 29.672 13.644C29.28 13.82 28.944 14.06 28.664 14.364C28.384 14.668 28.168 15.028 28.016 15.444C27.864 15.852 27.788 16.288 27.788 16.752C27.788 17.232 27.872 17.68 28.04 18.096C28.208 18.504 28.44 18.86 28.736 19.164C29.032 19.468 29.38 19.708 29.78 19.884C30.18 20.052 30.616 20.136 31.088 20.136C31.496 20.136 31.88 20.1 32.24 20.028C32.608 19.948 32.92 19.836 33.176 19.692V17.328H31.292V16.248H34.328ZM36.1558 15.312H37.2358V16.188H37.2598C37.3318 16.036 37.4278 15.9 37.5478 15.78C37.6678 15.652 37.7998 15.544 37.9438 15.456C38.0958 15.368 38.2598 15.3 38.4358 15.252C38.6118 15.196 38.7878 15.168 38.9638 15.168C39.1398 15.168 39.2998 15.192 39.4438 15.24L39.3958 16.404C39.3078 16.38 39.2198 16.36 39.1318 16.344C39.0438 16.328 38.9558 16.32 38.8678 16.32C38.3398 16.32 37.9358 16.468 37.6558 16.764C37.3758 17.06 37.2358 17.52 37.2358 18.144V21H36.1558V15.312ZM40.6213 16.008C40.9253 15.728 41.2773 15.52 41.6773 15.384C42.0773 15.24 42.4773 15.168 42.8773 15.168C43.2933 15.168 43.6493 15.22 43.9453 15.324C44.2493 15.428 44.4973 15.568 44.6893 15.744C44.8813 15.92 45.0213 16.124 45.1093 16.356C45.2053 16.58 45.2533 16.816 45.2533 17.064V19.968C45.2533 20.168 45.2573 20.352 45.2653 20.52C45.2733 20.688 45.2853 20.848 45.3013 21H44.3413C44.3173 20.712 44.3053 20.424 44.3053 20.136H44.2813C44.0413 20.504 43.7573 20.764 43.4293 20.916C43.1013 21.068 42.7213 21.144 42.2893 21.144C42.0253 21.144 41.7733 21.108 41.5333 21.036C41.2933 20.964 41.0813 20.856 40.8973 20.712C40.7213 20.568 40.5813 20.392 40.4773 20.184C40.3733 19.968 40.3213 19.72 40.3213 19.44C40.3213 19.072 40.4013 18.764 40.5613 18.516C40.7293 18.268 40.9533 18.068 41.2333 17.916C41.5213 17.756 41.8533 17.644 42.2293 17.58C42.6133 17.508 43.0213 17.472 43.4533 17.472H44.2453V17.232C44.2453 17.088 44.2173 16.944 44.1613 16.8C44.1053 16.656 44.0213 16.528 43.9093 16.416C43.7973 16.296 43.6573 16.204 43.4893 16.14C43.3213 16.068 43.1213 16.032 42.8893 16.032C42.6813 16.032 42.4973 16.052 42.3373 16.092C42.1853 16.132 42.0453 16.184 41.9173 16.248C41.7893 16.304 41.6733 16.372 41.5693 16.452C41.4653 16.532 41.3653 16.608 41.2693 16.68L40.6213 16.008ZM43.6693 18.264C43.4133 18.264 43.1493 18.28 42.8773 18.312C42.6133 18.336 42.3693 18.388 42.1453 18.468C41.9293 18.548 41.7493 18.66 41.6053 18.804C41.4693 18.948 41.4013 19.132 41.4013 19.356C41.4013 19.684 41.5093 19.92 41.7253 20.064C41.9493 20.208 42.2493 20.28 42.6253 20.28C42.9213 20.28 43.1733 20.232 43.3813 20.136C43.5893 20.032 43.7573 19.9 43.8853 19.74C44.0133 19.58 44.1053 19.404 44.1613 19.212C44.2173 19.012 44.2453 18.816 44.2453 18.624V18.264H43.6693ZM46.8199 15.312H47.8999V16.188H47.9239C48.0599 15.884 48.2959 15.64 48.6319 15.456C48.9679 15.264 49.3559 15.168 49.7959 15.168C50.0679 15.168 50.3279 15.212 50.5759 15.3C50.8319 15.38 51.0519 15.508 51.2359 15.684C51.4279 15.86 51.5799 16.088 51.6919 16.368C51.8039 16.64 51.8599 16.964 51.8599 17.34V21H50.7799V17.64C50.7799 17.376 50.7439 17.152 50.6719 16.968C50.5999 16.776 50.5039 16.624 50.3839 16.512C50.2639 16.392 50.1239 16.308 49.9639 16.26C49.8119 16.204 49.6519 16.176 49.4839 16.176C49.2599 16.176 49.0519 16.212 48.8599 16.284C48.6679 16.356 48.4999 16.472 48.3559 16.632C48.2119 16.784 48.0999 16.98 48.0199 17.22C47.9399 17.46 47.8999 17.744 47.8999 18.072V21H46.8199V15.312ZM59.1879 21H58.1079V20.184H58.0839C57.8759 20.488 57.5879 20.724 57.2199 20.892C56.8599 21.06 56.4879 21.144 56.1039 21.144C55.6639 21.144 55.2639 21.068 54.9039 20.916C54.5519 20.764 54.2479 20.552 53.9919 20.28C53.7439 20.008 53.5519 19.692 53.4159 19.332C53.2799 18.972 53.2119 18.58 53.2119 18.156C53.2119 17.732 53.2799 17.34 53.4159 16.98C53.5519 16.612 53.7439 16.296 53.9919 16.032C54.2479 15.76 54.5519 15.548 54.9039 15.396C55.2639 15.244 55.6639 15.168 56.1039 15.168C56.5119 15.168 56.8959 15.256 57.2559 15.432C57.6159 15.6 57.8919 15.832 58.0839 16.128H58.1079V11.928H59.1879V21ZM56.2359 20.136C56.5239 20.136 56.7839 20.088 57.0159 19.992C57.2479 19.888 57.4439 19.752 57.6039 19.584C57.7639 19.408 57.8879 19.2 57.9759 18.96C58.0639 18.712 58.1079 18.444 58.1079 18.156C58.1079 17.868 58.0639 17.604 57.9759 17.364C57.8879 17.116 57.7639 16.908 57.6039 16.74C57.4439 16.564 57.2479 16.428 57.0159 16.332C56.7839 16.228 56.5239 16.176 56.2359 16.176C55.9479 16.176 55.6879 16.228 55.4559 16.332C55.2239 16.428 55.0279 16.564 54.8679 16.74C54.7079 16.908 54.5839 17.116 54.4959 17.364C54.4079 17.604 54.3639 17.868 54.3639 18.156C54.3639 18.444 54.4079 18.712 54.4959 18.96C54.5839 19.2 54.7079 19.408 54.8679 19.584C55.0279 19.752 55.2239 19.888 55.4559 19.992C55.6879 20.088 55.9479 20.136 56.2359 20.136ZM61.6398 18.552C61.6398 18.8 61.6918 19.028 61.7958 19.236C61.9078 19.436 62.0518 19.608 62.2278 19.752C62.4038 19.896 62.6078 20.008 62.8398 20.088C63.0718 20.168 63.3118 20.208 63.5598 20.208C63.8958 20.208 64.1878 20.132 64.4358 19.98C64.6838 19.82 64.9118 19.612 65.1198 19.356L65.9358 19.98C65.3358 20.756 64.4958 21.144 63.4158 21.144C62.9678 21.144 62.5598 21.068 62.1918 20.916C61.8318 20.764 61.5238 20.556 61.2678 20.292C61.0198 20.02 60.8278 19.704 60.6918 19.344C60.5558 18.976 60.4878 18.58 60.4878 18.156C60.4878 17.732 60.5598 17.34 60.7038 16.98C60.8558 16.612 61.0598 16.296 61.3158 16.032C61.5798 15.76 61.8918 15.548 62.2518 15.396C62.6118 15.244 63.0038 15.168 63.4278 15.168C63.9318 15.168 64.3558 15.256 64.6998 15.432C65.0518 15.608 65.3398 15.84 65.5638 16.128C65.7878 16.408 65.9478 16.728 66.0438 17.088C66.1478 17.44 66.1998 17.8 66.1998 18.168V18.552H61.6398ZM65.0478 17.688C65.0398 17.448 64.9998 17.228 64.9278 17.028C64.8638 16.828 64.7638 16.656 64.6278 16.512C64.4918 16.36 64.3198 16.244 64.1118 16.164C63.9118 16.076 63.6758 16.032 63.4038 16.032C63.1398 16.032 62.8958 16.084 62.6718 16.188C62.4558 16.284 62.2718 16.412 62.1198 16.572C61.9678 16.732 61.8478 16.912 61.7598 17.112C61.6798 17.304 61.6398 17.496 61.6398 17.688H65.0478ZM69.9436 12.504H71.2756L73.7716 19.416H73.7956L76.3876 12.504H77.6476L74.2996 21H73.2196L69.9436 12.504ZM78.2633 15.312H79.3433V21H78.2633V15.312ZM78.0113 13.272C78.0113 13.056 78.0873 12.872 78.2393 12.72C78.3993 12.56 78.5873 12.48 78.8033 12.48C79.0193 12.48 79.2033 12.56 79.3553 12.72C79.5153 12.872 79.5953 13.056 79.5953 13.272C79.5953 13.488 79.5153 13.676 79.3553 13.836C79.2033 13.988 79.0193 14.064 78.8033 14.064C78.5873 14.064 78.3993 13.988 78.2393 13.836C78.0873 13.676 78.0113 13.488 78.0113 13.272ZM84.1101 16.248H82.5621V18.828C82.5621 18.988 82.5661 19.148 82.5741 19.308C82.5821 19.46 82.6101 19.6 82.6581 19.728C82.7141 19.848 82.7941 19.948 82.8981 20.028C83.0101 20.1 83.1701 20.136 83.3781 20.136C83.5061 20.136 83.6381 20.124 83.7741 20.1C83.9101 20.076 84.0341 20.032 84.1461 19.968V20.952C84.0181 21.024 83.8501 21.072 83.6421 21.096C83.4421 21.128 83.2861 21.144 83.1741 21.144C82.7581 21.144 82.4341 21.088 82.2021 20.976C81.9781 20.856 81.8101 20.704 81.6981 20.52C81.5941 20.336 81.5301 20.132 81.5061 19.908C81.4901 19.676 81.4821 19.444 81.4821 19.212V16.248H80.2341V15.312H81.4821V13.716H82.5621V15.312H84.1101V16.248ZM86.3195 18.552C86.3195 18.8 86.3715 19.028 86.4755 19.236C86.5875 19.436 86.7315 19.608 86.9075 19.752C87.0835 19.896 87.2875 20.008 87.5195 20.088C87.7515 20.168 87.9915 20.208 88.2395 20.208C88.5755 20.208 88.8675 20.132 89.1155 19.98C89.3635 19.82 89.5915 19.612 89.7995 19.356L90.6155 19.98C90.0155 20.756 89.1755 21.144 88.0955 21.144C87.6475 21.144 87.2395 21.068 86.8715 20.916C86.5115 20.764 86.2035 20.556 85.9475 20.292C85.6995 20.02 85.5075 19.704 85.3715 19.344C85.2355 18.976 85.1675 18.58 85.1675 18.156C85.1675 17.732 85.2395 17.34 85.3835 16.98C85.5355 16.612 85.7395 16.296 85.9955 16.032C86.2595 15.76 86.5715 15.548 86.9315 15.396C87.2915 15.244 87.6835 15.168 88.1075 15.168C88.6115 15.168 89.0355 15.256 89.3795 15.432C89.7315 15.608 90.0195 15.84 90.2435 16.128C90.4675 16.408 90.6275 16.728 90.7235 17.088C90.8275 17.44 90.8795 17.8 90.8795 18.168V18.552H86.3195ZM89.7275 17.688C89.7195 17.448 89.6795 17.228 89.6075 17.028C89.5435 16.828 89.4435 16.656 89.3075 16.512C89.1715 16.36 88.9995 16.244 88.7915 16.164C88.5915 16.076 88.3555 16.032 88.0835 16.032C87.8195 16.032 87.5755 16.084 87.3515 16.188C87.1355 16.284 86.9515 16.412 86.7995 16.572C86.6475 16.732 86.5275 16.912 86.4395 17.112C86.3595 17.304 86.3195 17.496 86.3195 17.688H89.7275ZM95.1955 16.74C95.0675 16.58 94.9075 16.448 94.7155 16.344C94.5315 16.232 94.3035 16.176 94.0315 16.176C93.7755 16.176 93.5515 16.232 93.3595 16.344C93.1755 16.448 93.0835 16.604 93.0835 16.812C93.0835 16.98 93.1355 17.116 93.2395 17.22C93.3515 17.324 93.4795 17.408 93.6235 17.472C93.7755 17.536 93.9355 17.584 94.1035 17.616C94.2715 17.648 94.4155 17.676 94.5355 17.7C94.7675 17.756 94.9835 17.824 95.1835 17.904C95.3915 17.984 95.5675 18.088 95.7115 18.216C95.8635 18.344 95.9795 18.5 96.0595 18.684C96.1475 18.868 96.1915 19.092 96.1915 19.356C96.1915 19.676 96.1235 19.952 95.9875 20.184C95.8515 20.408 95.6755 20.592 95.4595 20.736C95.2435 20.88 94.9955 20.984 94.7155 21.048C94.4435 21.112 94.1675 21.144 93.8875 21.144C93.4155 21.144 92.9995 21.072 92.6395 20.928C92.2875 20.784 91.9715 20.52 91.6915 20.136L92.5075 19.464C92.6835 19.64 92.8795 19.796 93.0955 19.932C93.3115 20.068 93.5755 20.136 93.8875 20.136C94.0235 20.136 94.1595 20.124 94.2955 20.1C94.4395 20.068 94.5635 20.024 94.6675 19.968C94.7795 19.904 94.8675 19.828 94.9315 19.74C95.0035 19.644 95.0395 19.536 95.0395 19.416C95.0395 19.256 94.9875 19.124 94.8835 19.02C94.7875 18.916 94.6675 18.836 94.5235 18.78C94.3875 18.716 94.2395 18.668 94.0795 18.636C93.9275 18.596 93.7915 18.564 93.6715 18.54C93.4395 18.484 93.2195 18.42 93.0115 18.348C92.8035 18.276 92.6195 18.18 92.4595 18.06C92.2995 17.94 92.1715 17.788 92.0755 17.604C91.9795 17.42 91.9315 17.192 91.9315 16.92C91.9315 16.624 91.9915 16.368 92.1115 16.152C92.2395 15.928 92.4035 15.744 92.6035 15.6C92.8115 15.456 93.0435 15.348 93.2995 15.276C93.5635 15.204 93.8275 15.168 94.0915 15.168C94.4755 15.168 94.8435 15.24 95.1955 15.384C95.5475 15.528 95.8275 15.768 96.0355 16.104L95.1955 16.74ZM100.528 16.74C100.4 16.58 100.24 16.448 100.048 16.344C99.8635 16.232 99.6355 16.176 99.3635 16.176C99.1075 16.176 98.8835 16.232 98.6915 16.344C98.5075 16.448 98.4155 16.604 98.4155 16.812C98.4155 16.98 98.4675 17.116 98.5715 17.22C98.6835 17.324 98.8115 17.408 98.9555 17.472C99.1075 17.536 99.2675 17.584 99.4355 17.616C99.6035 17.648 99.7475 17.676 99.8675 17.7C100.1 17.756 100.316 17.824 100.516 17.904C100.724 17.984 100.9 18.088 101.044 18.216C101.196 18.344 101.312 18.5 101.392 18.684C101.48 18.868 101.524 19.092 101.524 19.356C101.524 19.676 101.456 19.952 101.32 20.184C101.184 20.408 101.008 20.592 100.792 20.736C100.576 20.88 100.328 20.984 100.048 21.048C99.7755 21.112 99.4995 21.144 99.2195 21.144C98.7475 21.144 98.3315 21.072 97.9715 20.928C97.6195 20.784 97.3035 20.52 97.0235 20.136L97.8395 19.464C98.0155 19.64 98.2115 19.796 98.4275 19.932C98.6435 20.068 98.9075 20.136 99.2195 20.136C99.3555 20.136 99.4915 20.124 99.6275 20.1C99.7715 20.068 99.8955 20.024 99.9995 19.968C100.112 19.904 100.2 19.828 100.264 19.74C100.336 19.644 100.372 19.536 100.372 19.416C100.372 19.256 100.32 19.124 100.215 19.02C100.12 18.916 99.9995 18.836 99.8555 18.78C99.7195 18.716 99.5715 18.668 99.4115 18.636C99.2595 18.596 99.1235 18.564 99.0035 18.54C98.7715 18.484 98.5515 18.42 98.3435 18.348C98.1355 18.276 97.9515 18.18 97.7915 18.06C97.6315 17.94 97.5035 17.788 97.4075 17.604C97.3115 17.42 97.2635 17.192 97.2635 16.92C97.2635 16.624 97.3235 16.368 97.4435 16.152C97.5715 15.928 97.7355 15.744 97.9355 15.6C98.1435 15.456 98.3755 15.348 98.6315 15.276C98.8955 15.204 99.1595 15.168 99.4235 15.168C99.8075 15.168 100.176 15.24 100.528 15.384C100.88 15.528 101.16 15.768 101.368 16.104L100.528 16.74ZM103.652 18.552C103.652 18.8 103.704 19.028 103.808 19.236C103.92 19.436 104.064 19.608 104.24 19.752C104.416 19.896 104.62 20.008 104.852 20.088C105.084 20.168 105.324 20.208 105.572 20.208C105.908 20.208 106.2 20.132 106.448 19.98C106.696 19.82 106.924 19.612 107.132 19.356L107.948 19.98C107.348 20.756 106.508 21.144 105.428 21.144C104.98 21.144 104.572 21.068 104.204 20.916C103.844 20.764 103.536 20.556 103.28 20.292C103.032 20.02 102.84 19.704 102.704 19.344C102.568 18.976 102.5 18.58 102.5 18.156C102.5 17.732 102.572 17.34 102.716 16.98C102.868 16.612 103.072 16.296 103.328 16.032C103.592 15.76 103.904 15.548 104.264 15.396C104.624 15.244 105.016 15.168 105.44 15.168C105.944 15.168 106.368 15.256 106.712 15.432C107.064 15.608 107.352 15.84 107.576 16.128C107.8 16.408 107.96 16.728 108.056 17.088C108.16 17.44 108.212 17.8 108.212 18.168V18.552H103.652ZM107.06 17.688C107.052 17.448 107.012 17.228 106.94 17.028C106.876 16.828 106.776 16.656 106.64 16.512C106.504 16.36 106.332 16.244 106.124 16.164C105.924 16.076 105.688 16.032 105.416 16.032C105.152 16.032 104.908 16.084 104.684 16.188C104.468 16.284 104.284 16.412 104.132 16.572C103.98 16.732 103.86 16.912 103.772 17.112C103.692 17.304 103.652 17.496 103.652 17.688H107.06Z"></path></svg>